<svg xmlns="http://www.w3.org/2000/svg" width="143.60608mm" height="29.306061mm" viewBox="0 0 143.60608 29.306061"><path d="M79.542 192.206v-13.099c0-1.93 2.082-3.93 4.09-3.93h24.004v2.825H84.923v15.538h22.713v2.883H83.632c-2.865 0-4.09-2.286-4.09-4.217m34.538.19v-17.22h5.286v18.555h22.714v2.692h-23.91c-2.007 0-4.09-2.096-4.09-4.026m34.539-17.22h5.452v21.246h-5.452zm22.652-2.65 4.1-5.41h4.114l-4.033 5.41zm-5.398 11.787h17.473v-6.184h-17.473zm-5.134 7.892v-13.099c0-1.93 2.082-3.93 4.09-3.93h19.56c2.009 0 4.09 1.563 4.09 3.492v4.804c0 1.929-2.081 3.931-4.09 3.931h-18.516v6.217h22.606v2.802h-23.65c-2.614 0-4.09-1.882-4.09-4.217m56.924-14.14h-16.955v18.357h-5.487V179.18c0-1.967 2.284-4.003 4.487-4.003h18.951c2.204 0 4.489 2.037 4.489 4.003v17.244h-5.485z" style="opacity:1;fill:#fff;fill-opacity:1;fill-rule:evenodd;stroke:none;stroke-width:.407119" transform="translate(-79.542 -167.117)"/></svg>