<svg xmlns="http://www.w3.org/2000/svg" width="130" height="34" fill="none" viewBox="0 0 130 34"><g clip-path="url(#a)"><path fill="#231F20" d="M41.305 24.097c-1.11 0-2.12-.282-3.031-.858a6.348 6.348 0 0 1-2.184-2.299c-.544-.958-.811-2.026-.811-3.188 0-.885.157-1.712.471-2.477a6.398 6.398 0 0 1 1.298-2.026 6.074 6.074 0 0 1 1.922-1.367 5.635 5.635 0 0 1 2.34-.492c.927 0 1.775.189 2.545.57.77.383 1.43.912 1.98 1.582.544.67.947 1.445 1.203 2.314.257.875.336 1.801.23 2.78H37.97c.105.556.309 1.058.607 1.503.304.445.686.796 1.157 1.058.472.262.995.393 1.576.398a3.12 3.12 0 0 0 1.67-.461 3.585 3.585 0 0 0 1.236-1.267l2.545.591a6.319 6.319 0 0 1-2.183 2.624 5.571 5.571 0 0 1-3.268 1.02l-.005-.005Zm-3.424-7.382h6.849a3.67 3.67 0 0 0-1.827-2.696 3.172 3.172 0 0 0-1.598-.414c-.576 0-1.1.136-1.586.408a3.46 3.46 0 0 0-1.205 1.116c-.319.47-.528 1-.633 1.586ZM58.254 6.63v2.55h-5.461v14.603h-2.55V9.181h-5.45V6.63h13.46Z"/><path fill="#231F20" d="M61.636 24.097a5.676 5.676 0 0 1-3.079-.869 6.411 6.411 0 0 1-2.214-2.335c-.55-.974-.828-2.058-.828-3.24 0-.901.157-1.74.477-2.52a6.68 6.68 0 0 1 1.314-2.057 6.144 6.144 0 0 1 1.953-1.393 5.712 5.712 0 0 1 2.377-.502c1.126 0 2.152.288 3.079.869a6.426 6.426 0 0 1 2.215 2.34c.55.98.827 2.068.827 3.257a6.49 6.49 0 0 1-.477 2.497c-.32.775-.759 1.461-1.314 2.053a6.18 6.18 0 0 1-1.948 1.393 5.702 5.702 0 0 1-2.382.502v.005Zm0-2.55c.675 0 1.288-.177 1.827-.539.54-.361.964-.832 1.278-1.43a4.05 4.05 0 0 0 .471-1.926c0-.691-.162-1.361-.482-1.958a3.92 3.92 0 0 0-1.293-1.43 3.202 3.202 0 0 0-1.8-.534c-.66 0-1.279.178-1.818.54a3.83 3.83 0 0 0-1.288 1.434 4.119 4.119 0 0 0-.471 1.948c0 .702.162 1.382.492 1.974a3.82 3.82 0 0 0 1.304 1.403 3.254 3.254 0 0 0 1.78.519ZM69.464 23.778V6.631h2.55v14.602H79.4v2.55H69.47l-.005-.005ZM87.087 6.63h2.98l6.235 17.148h-2.696l-1.189-3.257h-7.68l-1.179 3.257h-2.707l6.236-17.147ZM85.68 17.972h5.796l-2.9-7.963-2.891 7.963h-.005ZM97.72 23.778V6.631h2.755l7.875 12.545V6.63h2.55v17.147h-2.755l-7.874-12.545v12.545h-2.55ZM112.753 23.778V6.631h5.671c1.183 0 2.293.225 3.33.67a8.667 8.667 0 0 1 4.576 4.581 8.31 8.31 0 0 1 .67 3.325 8.31 8.31 0 0 1-.67 3.325 8.667 8.667 0 0 1-4.576 4.581 8.352 8.352 0 0 1-3.33.665h-5.671Zm2.55-2.55h3.126a5.88 5.88 0 0 0 2.335-.466 6.131 6.131 0 0 0 1.922-1.298 5.937 5.937 0 0 0 1.769-4.262 5.927 5.927 0 0 0-1.769-4.262 6.131 6.131 0 0 0-1.922-1.299 5.88 5.88 0 0 0-2.335-.466h-3.126v12.053Z"/><path fill="url(#b)" d="M30.352 12.495c0-6.76-5.482-12.236-12.236-12.236h-5.88C5.476.259 0 5.735 0 12.495v5.88c0 6.76 6.11 13.377 12.236 12.236l5.1-1.006v2.278c0 .749.764 1.738 2.35.953 4.08-2.021 10.666-7.079 10.666-15.624v-4.717Z"/><path fill="#fff" d="M16.247 23.49c-.226 0-.45-.01-.676-.031-2.356-.22-4.314-1.461-5.513-3.487-.906-1.535-1.272-3.393-1.073-5.21-1.849-1.058-3.503-2.529-4.87-4.356l1.99-1.487c1.031 1.377 2.215 2.497 3.534 3.35 0-.01.01-.026.016-.036 1.104-2.545 3.246-4.361 5.728-4.859 1.995-.398 3.895.105 5.22 1.377 1.387 1.335 1.77 3.294.968 4.985-1.036 2.188-3.675 3.256-7.068 2.858a14.45 14.45 0 0 1-3.094-.717 5.821 5.821 0 0 0 .78 2.833c.78 1.324 2.063 2.13 3.607 2.277 2.22.21 4.257-1.193 4.953-3.419l2.367.744c-.984 3.126-3.754 5.178-6.88 5.178h.01ZM11.859 13.4c.937.362 1.916.608 2.937.728 2.283.267 3.974-.277 4.535-1.455.335-.712.162-1.55-.445-2.131-.728-.702-1.828-.969-3.011-.733-1.686.335-3.157 1.613-3.938 3.414-.026.057-.052.12-.073.183l-.005-.005Z"/></g><defs><linearGradient id="b" x1="6.461" x2="21.9381" y1="3.75103" y2="24.5791" gradientUnits="userSpaceOnUse"><stop stop-color="#49C84C"/><stop offset="1" stop-color="#0CA236"/></linearGradient><clipPath id="a"><path fill="#fff" d="M0 .259h127v32.86H0z"/></clipPath></defs></svg>