<?xml version="1.0" standalone="no"?>
<!DOCTYPE svg PUBLIC "-//W3C//DTD SVG 20010904//EN"
 "http://www.w3.org/TR/2001/REC-SVG-20010904/DTD/svg10.dtd">
<svg version="1.0" xmlns="http://www.w3.org/2000/svg"
 width="512.000000pt" height="512.000000pt" viewBox="0 0 512.000000 512.000000"
 preserveAspectRatio="xMidYMid meet">

<g transform="translate(0.000000,512.000000) scale(0.100000,-0.100000)"
fill="#000000" stroke="none">
<path d="M1876 4579 c-188 -18 -422 -93 -588 -188 -119 -68 -235 -160 -340
-269 -564 -588 -549 -1517 33 -2093 209 -206 482 -348 784 -406 136 -26 417
-24 551 5 237 51 447 147 623 284 l64 50 85 -85 85 -85 -13 -46 c-18 -66 -9
-180 19 -236 16 -31 140 -162 395 -416 423 -423 417 -418 556 -419 73 0 93 4
142 28 65 32 121 90 152 156 31 68 29 197 -3 266 -32 67 -742 781 -811 816
-56 28 -170 37 -236 19 l-46 -13 -85 85 -85 85 50 64 c137 176 233 387 284
623 29 135 31 416 5 551 -60 308 -202 579 -418 794 -120 121 -241 207 -394
282 -184 89 -326 129 -532 149 -120 11 -149 11 -277 -1z m365 -225 c492 -83
898 -455 1023 -937 132 -509 -57 -1041 -480 -1353 -363 -269 -848 -325 -1263
-146 -157 68 -264 142 -398 274 -243 240 -373 555 -373 903 0 211 41 387 135
572 191 379 539 628 975 696 68 11 295 6 381 -9z m1277 -2608 c15 -8 181 -169
368 -358 261 -262 343 -350 348 -374 11 -49 -16 -102 -60 -120 -70 -29 -74
-27 -428 325 -180 179 -341 344 -357 365 -41 55 -39 98 5 142 38 38 78 44 124
20z"/>
</g>
</svg>
